# xmcd
#
# Track frame offsets:
#	150
#	18716
#	37029
#	52460
#	66974
#	81159
#	96667
#	117437
#	126832
#	140435
#
# Disc length: 2272 seconds
#
# Revision: 0
# Processed by: cddbd v1.5.1PL2 Copyright (c) Steve Scherf et al.
# Submitted via: SynApp - FreeCDDB Version: 2.0
#
DISCID=9e08de0a
DTITLE=Neil Young - Harvest
DYEAR=1983
DGENRE=Blues
TTITLE0=A Man Needs A Maid
TTITLE1=Alabama
TTITLE2=Are You Ready For The Country?
TTITLE3=Harvest
TTITLE4=Heart Of Gold
TTITLE5=Old Man
TTITLE6=Out On The Weekend
TTITLE7=The Needle And The Damage Done
TTITLE8=There's A World
TTITLE9=Words (Between The Lines Of Ag
EXTD=
EXTT0=
EXTT1=
EXTT2=
EXTT3=
EXTT4=
EXTT5=
EXTT6=
EXTT7=
EXTT8=
EXTT9=
PLAYORDER=
